<?xml version="1.0" encoding="utf-8"?>
<!-- Generator: Adobe Illustrator 23.0.1, SVG Export Plug-In . SVG Version: 6.00 Build 0)  -->
<svg version="1.1" id="Layer_1" xmlns="http://www.w3.org/2000/svg" xmlns:xlink="http://www.w3.org/1999/xlink" x="0px" y="0px"
	 viewBox="0 0 684.3 109.95" style="enable-background:new 0 0 684.3 109.95;" xml:space="preserve">
<path id="XMLID_39_" style="fill:none;" d="M322.11,91.11c6.24,0,11.56-2.21,15.98-6.62c3.32-3.32,5.39-7.15,6.22-11.5v-8.86
	c-0.83-4.38-2.9-8.23-6.22-11.55c-4.41-4.41-9.74-6.62-15.98-6.62c-6.24,0-11.56,2.21-15.98,6.62c-4.41,4.41-6.62,9.74-6.62,15.98
	c0,6.24,2.21,11.56,6.62,15.95C310.54,88.91,315.87,91.11,322.11,91.11z"/>
<path id="XMLID_74_" style="fill:none;" d="M401.6,50.44c-3.88-2.99-8.4-4.48-13.54-4.48c-6.21,0-11.52,2.2-15.93,6.6
	c-4.41,4.4-6.62,9.71-6.62,15.95c0,5.15,1.49,9.66,4.48,13.54L401.6,50.44z"/>
<path id="XMLID_340_" style="fill:none;" d="M82.93,91.11c6.24,0,11.57-2.21,15.98-6.62c3.32-3.32,5.39-7.15,6.22-11.5v-8.86
	c-0.83-4.38-2.9-8.23-6.22-11.55c-4.41-4.41-9.74-6.62-15.98-6.62c-6.24,0-11.57,2.21-15.98,6.62c-4.41,4.41-6.62,9.74-6.62,15.98
	c0,6.24,2.21,11.56,6.62,15.95C71.36,88.91,76.69,91.11,82.93,91.11z"/>
<path id="XMLID_341_" style="fill:none;" d="M168.3,91.11c6.24,0,11.57-2.2,15.98-6.6c4.41-4.4,6.62-9.71,6.62-15.95
	c0-6.24-2.21-11.56-6.62-15.98c-4.41-4.41-9.74-6.62-15.98-6.62c-6.24,0-11.57,2.21-15.98,6.62c-4.41,4.41-6.62,9.74-6.62,15.98
	c0,6.24,2.21,11.56,6.62,15.95C156.73,88.91,162.06,91.11,168.3,91.11z"/>
<path id="XMLID_369_" style="fill:none;" d="M675.54,50.44c-3.88-2.99-8.4-4.48-13.54-4.48c-6.21,0-11.52,2.2-15.93,6.6
	c-4.41,4.4-6.62,9.71-6.62,15.95c0,5.15,1.49,9.66,4.48,13.54L675.54,50.44z"/>
<path id="XMLID_372_" d="M23.3,95.44c6.5,0,12.06-2.31,16.68-6.92c4.61-4.61,6.92-10.19,6.92-16.72c0-6.5-2.31-12.05-6.92-16.63
	c-4.35-4.35-9.71-7.55-16.08-9.61c-3.98-1.86-7.1-3.9-9.36-6.12c-2.42-2.42-3.63-5.34-3.63-8.76c0-3.45,1.21-6.38,3.63-8.79
	c2.42-2.41,5.34-3.61,8.76-3.61c3.42,0,6.34,1.19,8.76,3.58c1.36,1.36,2.34,2.85,2.94,4.48l4.03-1.59c-0.7-2.19-1.96-4.16-3.78-5.92
	c-3.32-3.29-7.3-4.93-11.95-4.93c-4.68,0-8.66,1.65-11.95,4.95c-3.29,3.3-4.93,7.24-4.93,11.82c0,4.68,1.64,8.66,4.93,11.95
	c3.29,3.29,7.77,5.87,13.44,7.76c4.78,1.96,8.81,4.58,12.1,7.86c3.75,3.75,5.63,8.26,5.63,13.54c0,5.31-1.88,9.84-5.63,13.59
	c-3.75,3.75-8.28,5.62-13.59,5.62c-5.28,0-9.79-1.87-13.54-5.62c-3.22-3.22-5.06-6.99-5.52-11.3L0,75.63
	c0.73,4.88,2.94,9.16,6.62,12.84C11.23,93.12,16.79,95.44,23.3,95.44z"/>
<path id="XMLID_375_" d="M82.93,95.89c7.57,0,14.02-2.67,19.36-8.01c1.03-1.06,1.97-2.17,2.84-3.34v9.96h4.48V45.61h-4.48v6.92
	c-0.86-1.16-1.81-2.27-2.84-3.34c-5.34-5.34-11.8-8.01-19.36-8.01c-7.53,0-13.97,2.67-19.31,8.01C58.27,54.54,55.6,61,55.6,68.56
	c0,7.53,2.67,13.97,8.01,19.31C68.96,93.22,75.4,95.89,82.93,95.89z M66.95,52.58c4.41-4.41,9.74-6.62,15.98-6.62
	c6.24,0,11.57,2.21,15.98,6.62c3.32,3.32,5.39,7.17,6.22,11.55v8.86c-0.83,4.35-2.9,8.18-6.22,11.5c-4.41,4.41-9.74,6.62-15.98,6.62
	c-6.24,0-11.57-2.2-15.98-6.6c-4.41-4.4-6.62-9.71-6.62-15.95C60.33,62.32,62.54,57,66.95,52.58z"/>
<rect id="XMLID_376_" x="124.54" y="14.85" width="4.48" height="79.64"/>
<path id="XMLID_379_" d="M168.3,95.89c7.57,0,14.01-2.67,19.34-8.01c5.33-5.34,7.99-11.78,7.99-19.31c0-7.57-2.66-14.02-7.99-19.36
	c-5.33-5.34-11.77-8.01-19.34-8.01c-7.53,0-13.97,2.67-19.31,8.01c-5.34,5.34-8.01,11.8-8.01,19.36c0,7.53,2.67,13.97,8.01,19.31
	C154.33,93.22,160.76,95.89,168.3,95.89z M152.32,52.58c4.41-4.41,9.74-6.62,15.98-6.62c6.24,0,11.57,2.21,15.98,6.62
	c4.41,4.41,6.62,9.74,6.62,15.98c0,6.24-2.21,11.56-6.62,15.95c-4.41,4.4-9.74,6.6-15.98,6.6c-6.24,0-11.57-2.2-15.98-6.6
	c-4.41-4.4-6.62-9.71-6.62-15.95C145.7,62.32,147.9,57,152.32,52.58z"/>
<path id="XMLID_380_" d="M212.05,56.52c0.76-1.73,1.96-3.4,3.58-5.03c2.99-2.89,6.54-4.33,10.65-4.33c4.11,0,7.67,1.47,10.68,4.41
	c3,2.94,4.5,6.48,4.5,10.63V94.5h4.48v-32.7c-0.1-5.51-1.96-10.07-5.57-13.69c-3.62-3.62-8.31-5.43-14.09-5.43
	c-5.41,0-10.15,2.02-14.24,6.07v-3.14h-4.48V94.5h4.48V56.52z"/>
<path id="XMLID_383_" d="M322.11,95.89c7.57,0,14.02-2.67,19.36-8.01c1.03-1.06,1.97-2.17,2.84-3.34v9.96h4.48V14.85h-4.48v37.68
	c-0.86-1.16-1.81-2.27-2.84-3.34c-5.34-5.34-11.8-8.01-19.36-8.01c-7.53,0-13.97,2.67-19.31,8.01c-5.34,5.34-8.01,11.8-8.01,19.36
	c0,7.53,2.67,13.97,8.01,19.31C308.14,93.22,314.57,95.89,322.11,95.89z M306.13,52.58c4.41-4.41,9.74-6.62,15.98-6.62
	c6.24,0,11.56,2.21,15.98,6.62c3.32,3.32,5.39,7.17,6.22,11.55v8.86c-0.83,4.35-2.9,8.18-6.22,11.5c-4.41,4.41-9.74,6.62-15.98,6.62
	c-6.24,0-11.56-2.2-15.98-6.6c-4.41-4.4-6.62-9.71-6.62-15.95C299.51,62.32,301.71,57,306.13,52.58z"/>
<path id="XMLID_386_" d="M388.06,95.89c7.57,0,14.02-2.67,19.36-8.01c1.1-1.1,2.07-2.24,2.94-3.44l-4.73-1.69
	c-0.5,0.6-1.03,1.18-1.59,1.74c-4.41,4.41-9.74,6.62-15.98,6.62c-5.81,0-10.82-1.92-15.03-5.77l31.86-31.86l3.39-3.38
	c-0.27-0.3-0.55-0.6-0.85-0.9c-0.8-0.8-1.59-1.53-2.39-2.19c-4.85-3.88-10.5-5.82-16.97-5.82c-7.53,0-13.97,2.67-19.31,8.01
	c-5.34,5.34-8.01,11.78-8.01,19.31c0,7.57,2.67,14.02,8.01,19.36C374.09,93.22,380.53,95.89,388.06,95.89z M372.13,52.56
	c4.41-4.4,9.72-6.6,15.93-6.6c5.14,0,9.66,1.49,13.54,4.48l-31.61,31.61c-2.99-3.88-4.48-8.39-4.48-13.54
	C365.51,62.27,367.72,56.96,372.13,52.56z"/>
<polygon id="XMLID_387_" points="497.62,90.02 462.28,90.02 462.28,56.91 497.62,56.91 497.62,52.43 462.28,52.43 462.28,19.33 
	497.62,19.33 497.62,14.85 457.8,14.85 457.8,94.5 497.62,94.5 "/>
<path id="XMLID_388_" d="M515.79,56.52c0.76-1.73,1.96-3.4,3.58-5.03c2.99-2.89,6.54-4.33,10.65-4.33c4.12,0,7.67,1.47,10.68,4.41
	c3,2.94,4.5,6.48,4.5,10.63V94.5h4.48v-32.7c-0.1-5.51-1.96-10.07-5.58-13.69c-3.62-3.62-8.31-5.43-14.09-5.43
	c-5.41,0-10.15,2.02-14.24,6.07v-3.14h-4.48V94.5h4.48V56.52z"/>
<polygon id="XMLID_389_" points="606.3,45.61 601.12,45.61 582.31,86.33 563.49,45.61 558.32,45.61 582.31,95.84 "/>
<rect id="XMLID_391_" x="617.25" y="45.61" width="4.48" height="48.88"/>
<path id="XMLID_394_" d="M662,95.89c7.57,0,14.02-2.67,19.36-8.01c1.1-1.1,2.07-2.24,2.94-3.44l-4.73-1.69
	c-0.5,0.6-1.03,1.18-1.59,1.74c-4.41,4.41-9.74,6.62-15.98,6.62c-5.81,0-10.82-1.92-15.03-5.77l31.86-31.86l3.39-3.38
	c-0.27-0.3-0.55-0.6-0.85-0.9c-0.8-0.8-1.59-1.53-2.39-2.19c-4.85-3.88-10.5-5.82-16.97-5.82c-7.53,0-13.97,2.67-19.31,8.01
	c-5.34,5.34-8.01,11.78-8.01,19.31c0,7.57,2.67,14.02,8.01,19.36C648.03,93.22,654.47,95.89,662,95.89z M646.08,52.56
	c4.41-4.4,9.72-6.6,15.93-6.6c5.14,0,9.66,1.49,13.54,4.48l-31.61,31.61c-2.99-3.88-4.48-8.39-4.48-13.54
	C639.45,62.27,641.66,56.96,646.08,52.56z"/>
</svg>
